<svg width="22" height="15" viewBox="0 0 22 15" fill="none" xmlns="http://www.w3.org/2000/svg">
<path id="wikipedia" d="M21.2518 0.252158C21.2517 0.336497 21.2271 0.418466 21.1817 0.485456C21.1476 0.546102 21.09 0.584797 21.0265 0.589614C20.6122 0.618233 20.2165 0.793954 19.8962 1.09162C19.4975 1.55747 19.1888 2.11138 18.9893 2.71846L14.2241 14.8292C14.1928 14.9417 14.1059 14.9979 13.9619 14.9979C13.8535 15.0005 13.7527 14.9357 13.6996 14.8292L11.027 8.52594L7.95369 14.8292C7.90054 14.9357 7.79974 15.0005 7.69142 14.9979C7.57823 15.013 7.46908 14.9452 7.41991 14.8292L2.73786 2.71846C2.53982 2.12089 2.22332 1.58226 1.81254 1.14368C1.41822 0.815324 0.947979 0.622869 0.45871 0.589605C0.402043 0.586271 0.350058 0.553099 0.318341 0.500033C0.274709 0.4435 0.251042 0.37084 0.251851 0.295896C0.251851 0.0980114 0.301719 0.000105509 0.401454 0.000105509C0.818867 0.000105509 1.25536 0.0209447 1.71095 0.0626231C2.13391 0.106364 2.53224 0.127888 2.90594 0.127197C3.28641 0.127197 3.73522 0.105673 4.25237 0.0626231C4.79353 0.0209447 5.27313 0.000105509 5.69115 0.000105509C5.79089 0.000105509 5.84075 0.0979949 5.84075 0.295896C5.84075 0.491675 5.80936 0.589564 5.74841 0.589564C5.39617 0.601097 5.05411 0.725379 4.76214 0.947905C4.5313 1.13104 4.3963 1.43164 4.40198 1.74987C4.41341 1.96952 4.46431 2.18425 4.55158 2.38103L8.42097 12.2358L10.617 7.55734L8.57057 2.71846C8.3474 2.11166 8.04141 1.54798 7.66372 1.04788C7.35865 0.768281 6.98156 0.60752 6.58878 0.589614C6.53655 0.584381 6.48977 0.551019 6.46319 0.500041C6.42271 0.441896 6.40119 0.369821 6.40224 0.295904C6.40224 0.0980196 6.44472 0.000113735 6.53337 0.000113735C6.91702 -0.00174257 7.30048 0.0191254 7.68218 0.0626313C8.03911 0.107293 8.39801 0.128853 8.75712 0.127205C9.13021 0.127205 9.52546 0.105681 9.94287 0.0626313C10.3732 0.0209529 10.7968 0.000113735 11.2136 0.000113735C11.3133 0.000113735 11.3632 0.0980031 11.3632 0.295904C11.3632 0.491683 11.3336 0.589573 11.2708 0.589573C10.436 0.654147 10.0186 0.921467 10.0186 1.39153C10.0553 1.73671 10.1539 2.06984 10.3086 2.37056L11.6624 5.47012L13.0088 2.63512C13.1714 2.32713 13.2676 1.98036 13.2896 1.62277C13.2896 0.977025 12.8721 0.63263 12.0373 0.589581C11.9616 0.589581 11.9247 0.491691 11.9247 0.295913C11.9248 0.224474 11.9442 0.154765 11.9801 0.0959384C12.0189 0.0313643 12.0558 0.000121961 12.0928 0.000121961C12.392 0.000121961 12.7595 0.0209612 13.1954 0.0626396C13.6128 0.106377 13.9563 0.127214 14.2242 0.127214C14.4162 0.127214 14.7007 0.108467 15.0738 0.0730537C15.5466 0.0251455 15.9437 0.000146639 16.2614 0.000146639C16.3352 0.000146639 16.3722 0.0834678 16.3722 0.252191C16.3722 0.477162 16.3038 0.589647 16.1672 0.589647C15.7472 0.61987 15.3422 0.776686 14.9943 1.04372C14.5386 1.52178 14.1638 2.08925 13.888 2.71847L12.0927 6.46168L14.5233 12.0463L18.112 2.63514C18.2275 2.33564 18.2909 2.01386 18.2985 1.68737C18.2985 0.997889 17.8811 0.631972 17.0463 0.589614C16.9706 0.589614 16.9336 0.491724 16.9336 0.295945C16.9336 0.0980607 16.9891 0.000154865 17.1017 0.000154865C17.4064 0.000154865 17.7678 0.0209941 18.1859 0.0626725C18.5719 0.10641 18.8969 0.127247 19.1574 0.127247C19.4759 0.124749 19.794 0.103194 20.1104 0.0626725C20.4854 0.0210078 20.8215 0.000154865 21.1207 0.000154865C21.2075 0.000113735 21.2518 0.0834349 21.2518 0.252158Z" fill="white"/>
</svg>
